<mxfile host="app.diagrams.net" modified="2023-09-17T12:23:16.996Z" agent="Mozilla/5.0 (Windows NT 10.0; Win64; x64) AppleWebKit/537.36 (KHTML, like Gecko) Chrome/116.0.0.0 Safari/537.36 Edg/116.0.1938.81" etag="1O2S0QXMeimoXwIFww1m" version="21.7.5" type="github">
  <diagram name="Page-1" id="74e2e168-ea6b-b213-b513-2b3c1d86103e">
    <mxGraphModel dx="1236" dy="1437" grid="1" gridSize="10" guides="1" tooltips="1" connect="1" arrows="1" fold="1" page="1" pageScale="1" pageWidth="1100" pageHeight="850" background="none" math="0" shadow="0">
      <root>
        <mxCell id="0" />
        <mxCell id="1" parent="0" />
        <mxCell id="3p74Ai3e4aje1u9l1uDw-1" value="Client1" style="ellipse;whiteSpace=wrap;html=1;" vertex="1" parent="1">
          <mxGeometry x="40" y="20" width="90" height="60" as="geometry" />
        </mxCell>
        <mxCell id="3p74Ai3e4aje1u9l1uDw-2" value="Client2" style="ellipse;whiteSpace=wrap;html=1;" vertex="1" parent="1">
          <mxGeometry x="40" y="120" width="90" height="60" as="geometry" />
        </mxCell>
        <mxCell id="3p74Ai3e4aje1u9l1uDw-3" value="" style="whiteSpace=wrap;html=1;aspect=fixed;" vertex="1" parent="1">
          <mxGeometry x="170" width="210" height="210" as="geometry" />
        </mxCell>
        <mxCell id="3p74Ai3e4aje1u9l1uDw-7" value="" style="endArrow=none;html=1;rounded=0;entryX=1;entryY=0.5;entryDx=0;entryDy=0;exitX=0;exitY=0.5;exitDx=0;exitDy=0;" edge="1" parent="1" source="3p74Ai3e4aje1u9l1uDw-3" target="3p74Ai3e4aje1u9l1uDw-1">
          <mxGeometry width="50" height="50" relative="1" as="geometry">
            <mxPoint x="200" y="240" as="sourcePoint" />
            <mxPoint x="250" y="190" as="targetPoint" />
          </mxGeometry>
        </mxCell>
        <mxCell id="3p74Ai3e4aje1u9l1uDw-9" value="" style="endArrow=none;html=1;rounded=0;entryX=0;entryY=0.5;entryDx=0;entryDy=0;exitX=0.996;exitY=0.36;exitDx=0;exitDy=0;exitPerimeter=0;" edge="1" parent="1" source="3p74Ai3e4aje1u9l1uDw-2" target="3p74Ai3e4aje1u9l1uDw-3">
          <mxGeometry width="50" height="50" relative="1" as="geometry">
            <mxPoint x="200" y="240" as="sourcePoint" />
            <mxPoint x="250" y="190" as="targetPoint" />
            <Array as="points">
              <mxPoint x="130" y="140" />
            </Array>
          </mxGeometry>
        </mxCell>
        <mxCell id="3p74Ai3e4aje1u9l1uDw-10" value="主线程" style="rounded=0;whiteSpace=wrap;html=1;" vertex="1" parent="1">
          <mxGeometry x="180" y="10" width="50" height="20" as="geometry" />
        </mxCell>
        <mxCell id="3p74Ai3e4aje1u9l1uDw-14" value="&lt;br&gt;&lt;br&gt;Epoll" style="rounded=0;whiteSpace=wrap;html=1;" vertex="1" parent="1">
          <mxGeometry x="200" y="40" width="160" height="60" as="geometry" />
        </mxCell>
        <mxCell id="3p74Ai3e4aje1u9l1uDw-15" value="MainReactor" style="rounded=0;whiteSpace=wrap;html=1;" vertex="1" parent="1">
          <mxGeometry x="210" y="50" width="70" height="20" as="geometry" />
        </mxCell>
        <mxCell id="3p74Ai3e4aje1u9l1uDw-16" value="listenfd" style="rounded=0;whiteSpace=wrap;html=1;direction=south;" vertex="1" parent="1">
          <mxGeometry x="310" y="65" width="45" height="30" as="geometry" />
        </mxCell>
        <mxCell id="3p74Ai3e4aje1u9l1uDw-17" value="Acceptor" style="rounded=1;whiteSpace=wrap;html=1;" vertex="1" parent="1">
          <mxGeometry x="230" y="150" width="85" height="30" as="geometry" />
        </mxCell>
        <mxCell id="3p74Ai3e4aje1u9l1uDw-18" value="" style="endArrow=classic;html=1;rounded=0;exitX=1;exitY=0.5;exitDx=0;exitDy=0;entryX=0.5;entryY=0;entryDx=0;entryDy=0;" edge="1" parent="1" source="3p74Ai3e4aje1u9l1uDw-16" target="3p74Ai3e4aje1u9l1uDw-17">
          <mxGeometry width="50" height="50" relative="1" as="geometry">
            <mxPoint x="200" y="60" as="sourcePoint" />
            <mxPoint x="250" y="10" as="targetPoint" />
          </mxGeometry>
        </mxCell>
        <mxCell id="3p74Ai3e4aje1u9l1uDw-19" value="可读，连接事件" style="edgeLabel;html=1;align=center;verticalAlign=middle;resizable=0;points=[];" vertex="1" connectable="0" parent="3p74Ai3e4aje1u9l1uDw-18">
          <mxGeometry x="-0.1103" y="-1" relative="1" as="geometry">
            <mxPoint as="offset" />
          </mxGeometry>
        </mxCell>
        <mxCell id="3p74Ai3e4aje1u9l1uDw-20" value="" style="whiteSpace=wrap;html=1;aspect=fixed;" vertex="1" parent="1">
          <mxGeometry x="430" y="-40" width="280" height="280" as="geometry" />
        </mxCell>
        <mxCell id="3p74Ai3e4aje1u9l1uDw-21" value="IO线程_1" style="rounded=0;whiteSpace=wrap;html=1;" vertex="1" parent="1">
          <mxGeometry x="450" y="-20" width="90" height="30" as="geometry" />
        </mxCell>
        <mxCell id="3p74Ai3e4aje1u9l1uDw-22" value="Epoll" style="rounded=0;whiteSpace=wrap;html=1;" vertex="1" parent="1">
          <mxGeometry x="470" y="20" width="220" height="70" as="geometry" />
        </mxCell>
        <mxCell id="3p74Ai3e4aje1u9l1uDw-24" value="SubReactor_1" style="rounded=0;whiteSpace=wrap;html=1;" vertex="1" parent="1">
          <mxGeometry x="480" y="30" width="80" height="20" as="geometry" />
        </mxCell>
        <mxCell id="3p74Ai3e4aje1u9l1uDw-25" value="clientfd1" style="rounded=0;whiteSpace=wrap;html=1;" vertex="1" parent="1">
          <mxGeometry x="600" y="62.5" width="80" height="15" as="geometry" />
        </mxCell>
        <mxCell id="3p74Ai3e4aje1u9l1uDw-28" value="" style="endArrow=classic;html=1;rounded=0;exitX=1;exitY=0.5;exitDx=0;exitDy=0;" edge="1" parent="1" source="3p74Ai3e4aje1u9l1uDw-17">
          <mxGeometry width="50" height="50" relative="1" as="geometry">
            <mxPoint x="410" y="60" as="sourcePoint" />
            <mxPoint x="460" y="10" as="targetPoint" />
          </mxGeometry>
        </mxCell>
        <mxCell id="3p74Ai3e4aje1u9l1uDw-30" value="注册到Epoll中" style="edgeLabel;html=1;align=center;verticalAlign=middle;resizable=0;points=[];" vertex="1" connectable="0" parent="3p74Ai3e4aje1u9l1uDw-28">
          <mxGeometry x="0.5034" y="2" relative="1" as="geometry">
            <mxPoint as="offset" />
          </mxGeometry>
        </mxCell>
        <mxCell id="3p74Ai3e4aje1u9l1uDw-32" value="clientfd1" style="edgeLabel;html=1;align=center;verticalAlign=middle;resizable=0;points=[];" vertex="1" connectable="0" parent="3p74Ai3e4aje1u9l1uDw-28">
          <mxGeometry x="-0.6181" y="-2" relative="1" as="geometry">
            <mxPoint y="1" as="offset" />
          </mxGeometry>
        </mxCell>
        <mxCell id="3p74Ai3e4aje1u9l1uDw-34" value="ReadHandler" style="rounded=1;whiteSpace=wrap;html=1;" vertex="1" parent="1">
          <mxGeometry x="460" y="170" width="90" height="30" as="geometry" />
        </mxCell>
        <mxCell id="3p74Ai3e4aje1u9l1uDw-35" value="Handler" style="rounded=1;whiteSpace=wrap;html=1;" vertex="1" parent="1">
          <mxGeometry x="530" y="130" width="100" height="30" as="geometry" />
        </mxCell>
        <mxCell id="3p74Ai3e4aje1u9l1uDw-36" value="WriteHandler" style="rounded=1;whiteSpace=wrap;html=1;" vertex="1" parent="1">
          <mxGeometry x="610" y="170" width="85" height="30" as="geometry" />
        </mxCell>
        <mxCell id="3p74Ai3e4aje1u9l1uDw-37" value="" style="endArrow=none;html=1;rounded=0;" edge="1" parent="1">
          <mxGeometry width="50" height="50" relative="1" as="geometry">
            <mxPoint x="580" y="190" as="sourcePoint" />
            <mxPoint x="580" y="190" as="targetPoint" />
            <Array as="points">
              <mxPoint x="580" y="160" />
            </Array>
          </mxGeometry>
        </mxCell>
        <mxCell id="3p74Ai3e4aje1u9l1uDw-39" value="" style="endArrow=classic;html=1;rounded=0;" edge="1" parent="1">
          <mxGeometry width="50" height="50" relative="1" as="geometry">
            <mxPoint x="580" y="190" as="sourcePoint" />
            <mxPoint x="610" y="190" as="targetPoint" />
          </mxGeometry>
        </mxCell>
        <mxCell id="3p74Ai3e4aje1u9l1uDw-43" value="" style="endArrow=classic;html=1;rounded=0;" edge="1" parent="1">
          <mxGeometry width="50" height="50" relative="1" as="geometry">
            <mxPoint x="580" y="190" as="sourcePoint" />
            <mxPoint x="550" y="190" as="targetPoint" />
            <Array as="points">
              <mxPoint x="570" y="190" />
            </Array>
          </mxGeometry>
        </mxCell>
        <mxCell id="3p74Ai3e4aje1u9l1uDw-48" value="" style="endArrow=classic;html=1;rounded=0;exitX=0.5;exitY=1;exitDx=0;exitDy=0;entryX=0.5;entryY=0;entryDx=0;entryDy=0;" edge="1" parent="1" source="3p74Ai3e4aje1u9l1uDw-25" target="3p74Ai3e4aje1u9l1uDw-35">
          <mxGeometry width="50" height="50" relative="1" as="geometry">
            <mxPoint x="550" y="240" as="sourcePoint" />
            <mxPoint x="600" y="190" as="targetPoint" />
          </mxGeometry>
        </mxCell>
        <mxCell id="3p74Ai3e4aje1u9l1uDw-49" value="可读或可写事件" style="edgeLabel;html=1;align=center;verticalAlign=middle;resizable=0;points=[];" vertex="1" connectable="0" parent="3p74Ai3e4aje1u9l1uDw-48">
          <mxGeometry x="0.2074" relative="1" as="geometry">
            <mxPoint as="offset" />
          </mxGeometry>
        </mxCell>
        <mxCell id="3p74Ai3e4aje1u9l1uDw-50" value="主从Reactor模式" style="rounded=0;whiteSpace=wrap;html=1;" vertex="1" parent="1">
          <mxGeometry x="170" y="-40" width="230" height="30" as="geometry" />
        </mxCell>
      </root>
    </mxGraphModel>
  </diagram>
</mxfile>
